<svg width="24" height="24" viewBox="0 0 24 24" fill="none" xmlns="http://www.w3.org/2000/svg">
<path fill-rule="evenodd" clip-rule="evenodd" d="M22.35 0H7.65C6.75 0 6 0.75 6 1.65V4.5H7.5V2.025C7.5 1.725 7.725 1.5 8.025 1.5H21.975C22.275 1.5 22.5 1.725 22.5 2.025V12.975C22.5 13.275 22.275 13.5 21.975 13.5H19.5V15H22.5C23.4 15 24 14.325 24 13.425V1.65C24 0.75 23.25 0 22.35 0ZM16.35 6H1.65C0.75 6 0 6.75 0 7.65V19.35C0 20.25 0.75 21 1.65 21H6L9 24L12 21H16.275C17.175 21 17.925 20.25 17.925 19.35V7.65C18 6.75 17.25 6 16.35 6ZM16.5 18.975C16.5 19.275 16.275 19.5 15.975 19.5H11.25L9 21.75L6.75 19.5H2.025C1.725 19.5 1.5 19.275 1.5 18.975V8.025C1.5 7.725 1.725 7.5 2.025 7.5H15.975C16.275 7.5 16.5 7.725 16.5 8.025V18.975Z" fill="white"/>
</svg>
