<svg width="13" height="13" viewBox="0 0 13 13" fill="none" xmlns="http://www.w3.org/2000/svg">
<path d="M8.69375 6.49997C8.69375 5.28123 7.71875 4.30623 6.5 4.30623C5.28125 4.30623 4.30625 5.28123 4.30625 6.49997C4.30625 7.71871 5.28125 8.69371 6.5 8.69371C7.71875 8.69371 8.69375 7.71871 8.69375 6.49997ZM9.83125 6.49997C9.83125 8.36871 8.36875 9.8312 6.5 9.8312C4.63125 9.8312 3.16875 8.36871 3.16875 6.49997C3.16875 4.63123 4.63125 3.16874 6.5 3.16874C8.36875 3.16874 9.83125 4.63123 9.83125 6.49997ZM10.725 3.00624C10.725 3.49373 10.4 3.81873 9.9125 3.81873C9.425 3.81873 9.1 3.49373 9.1 3.00624C9.1 2.51874 9.425 2.19374 9.9125 2.19374C10.4 2.19374 10.725 2.59999 10.725 3.00624ZM6.5 1.13749C5.525 1.13749 3.49375 1.05625 2.68125 1.38124C2.1125 1.62499 1.625 2.11249 1.4625 2.68124C1.1375 3.49373 1.21875 5.52497 1.21875 6.49997C1.21875 7.47497 1.1375 9.50621 1.4625 10.3187C1.625 10.8874 2.1125 11.3749 2.68125 11.5374C3.49375 11.8624 5.60625 11.7812 6.5 11.7812C7.39375 11.7812 9.50625 11.8624 10.3187 11.5374C10.8875 11.2937 11.2938 10.8874 11.5375 10.3187C11.8625 9.42496 11.7812 7.39372 11.7812 6.49997C11.7812 5.60622 11.8625 3.49373 11.5375 2.68124C11.375 2.11249 10.8875 1.62499 10.3187 1.46249C9.50625 1.05624 7.475 1.13749 6.5 1.13749ZM13 6.49997V9.18121C13 10.1562 12.675 11.1312 11.9438 11.9437C11.2125 12.6749 10.2375 12.9999 9.18125 12.9999H3.81875C2.84375 12.9999 1.86875 12.6749 1.05625 11.9437C0.40625 11.2124 0 10.2375 0 9.18121V6.49997V3.81873C0 2.76249 0.40625 1.78749 1.05625 1.05624C1.86875 0.406248 2.84375 0 3.81875 0H9.18125C10.1562 0 11.1313 0.324998 11.9438 1.05624C12.5938 1.78749 13 2.76249 13 3.81873V6.49997Z" fill="white"/>
</svg>
