<svg width="14" height="14" viewBox="0 0 14 14" fill="none" xmlns="http://www.w3.org/2000/svg">
<path d="M2.62557 13.151H0V4.38379H2.73972V13.151H2.62557Z" fill="white"/>
<path d="M1.64383 3.28772C0.7045 3.28772 0 2.46579 0 1.64386C0 0.704511 0.7045 0 1.64383 0C2.58317 0 3.28767 0.704511 3.28767 1.64386C3.17025 2.46579 2.46575 3.28772 1.64383 3.28772Z" fill="white"/>
<path d="M13.1506 13.0331H10.3073V8.67034C10.3073 7.60913 10.3073 6.31209 8.88557 6.31209C7.46388 6.31209 7.22693 7.49122 7.22693 8.67034V13.151H4.38354V4.07176H7.10845V5.25088C7.46388 4.54341 8.41167 3.83594 9.71489 3.83594C12.5583 3.83594 13.0322 5.72253 13.0322 8.08078V13.0331H13.1506Z" fill="white"/>
</svg>
